<?xml version="1.0" encoding="iso-8859-1"?>
<!-- Generator: Adobe Illustrator 19.0.0, SVG Export Plug-In . SVG Version: 6.00 Build 0)  -->
<svg version="1.1" id="Capa_1" xmlns="http://www.w3.org/2000/svg" xmlns:xlink="http://www.w3.org/1999/xlink" x="0px" y="0px"
	 viewBox="0 0 511.999 511.999" style="enable-background:new 0 0 511.999 511.999;" xml:space="preserve">
<g>
	<g>
		<path d="M501.34,368.892L320.48,66.494C306.834,43.511,282.729,29.79,256,29.79c-26.729,0-50.834,13.721-64.456,36.663
			L10.634,368.932c-29.686,49.998,6.29,113.276,64.481,113.276h361.769C494.995,482.209,531.102,419.015,501.34,368.892z
			 M436.884,452.212H75.115c-34.958,0-56.468-38.02-38.713-67.924l180.91-302.479C225.5,68.018,239.963,59.785,256,59.785
			s30.5,8.233,38.713,22.064l180.86,302.397C493.385,414.245,471.799,452.212,436.884,452.212z"/>
	</g>
</g>
<g>
	<g>
		<path d="M256,332.227c-24.81,0-44.994,20.184-44.994,44.994c0,24.81,20.184,44.994,44.994,44.994s44.994-20.184,44.994-44.994
			C300.994,352.412,280.81,332.227,256,332.227z M256,392.22c-8.27,0-14.998-6.728-14.998-14.998c0-8.27,6.728-14.998,14.998-14.998
			c8.27,0,14.998,6.728,14.998,14.998C270.998,385.491,264.27,392.22,256,392.22z"/>
	</g>
</g>
<g>
	<g>
		<path d="M256,122.254c-24.81,0-44.994,20.184-44.994,44.994v89.988c0,24.81,20.184,44.994,44.994,44.994
			s44.994-20.184,44.994-44.994v-89.988C300.994,142.439,280.81,122.254,256,122.254z M270.998,257.237
			c0,8.27-6.728,14.998-14.998,14.998c-8.27,0-14.998-6.728-14.998-14.998v-89.988c0-8.27,6.728-14.998,14.998-14.998
			c8.27,0,14.998,6.728,14.998,14.998V257.237z"/>
	</g>
</g>
<g>
</g>
<g>
</g>
<g>
</g>
<g>
</g>
<g>
</g>
<g>
</g>
<g>
</g>
<g>
</g>
<g>
</g>
<g>
</g>
<g>
</g>
<g>
</g>
<g>
</g>
<g>
</g>
<g>
</g>
</svg>
