<svg height="512pt" viewBox="0 -21 512.016 512" width="512pt" xmlns="http://www.w3.org/2000/svg"><path d="m320 362.675781c-70.59375 0-128-57.410156-128-128 0-70.59375 57.40625-128 128-128s128 57.40625 128 128c0 70.589844-57.40625 128-128 128zm0-224c-52.929688 0-96 43.070313-96 96 0 52.925781 43.070312 96 96 96s96-43.074219 96-96c0-52.929687-43.070312-96-96-96zm0 0"/><path d="m496 426.675781c-4.097656 0-8.191406-1.558593-11.308594-4.695312l-96.851562-96.851563c-6.25-6.25-6.25-16.386718 0-22.636718s16.382812-6.25 22.636718 0l96.851563 96.855468c6.25 6.25 6.25 16.382813 0 22.632813-3.136719 3.136719-7.230469 4.695312-11.328125 4.695312zm0 0"/><path d="m368 32.007812h-352c-8.832031 0-16-7.167968-16-16 0-8.832031 7.167969-15.9999995 16-15.9999995h352c8.832031 0 16 7.1679685 16 15.9999995 0 8.832032-7.167969 16-16 16zm0 0"/><path d="m368 469.339844h-352c-8.832031 0-16-7.167969-16-16 0-8.832032 7.167969-16 16-16h352c8.832031 0 16 7.167968 16 16 0 8.832031-7.167969 16-16 16zm0 0"/><path d="m176 138.675781h-160c-8.832031 0-16-7.167969-16-16s7.167969-16 16-16h160c8.832031 0 16 7.167969 16 16s-7.167969 16-16 16zm0 0"/><path d="m176 362.675781h-160c-8.832031 0-16-7.167969-16-16s7.167969-16 16-16h160c8.832031 0 16 7.167969 16 16s-7.167969 16-16 16zm0 0"/><path d="m133.332031 250.675781h-117.332031c-8.832031 0-16-7.167969-16-16s7.167969-16 16-16h117.332031c8.832031 0 16 7.167969 16 16s-7.167969 16-16 16zm0 0"/></svg>