<?xml version="1.0" encoding="iso-8859-1"?>
<!-- Generator: Adobe Illustrator 19.0.0, SVG Export Plug-In . SVG Version: 6.00 Build 0)  -->
<svg version="1.1" id="Capa_1" xmlns="http://www.w3.org/2000/svg" xmlns:xlink="http://www.w3.org/1999/xlink" x="0px" y="0px"
	 viewBox="0 0 512 512" style="enable-background:new 0 0 512 512;" xml:space="preserve">
<g>
	<g>
		<path d="M476.871,35.171c-46.891-46.891-122.79-46.897-169.687,0L201.129,141.225c-11.234,11.234-19.763,24.162-25.601,37.968
			c-14.206,5.998-26.975,14.608-38.031,25.664L35.212,307.142c-46.891,46.891-46.897,122.79,0,169.688
			c46.89,46.89,122.791,46.897,169.687,0l102.284-102.284c11.234-11.234,19.763-24.162,25.601-37.968
			c14.206-5.998,26.974-14.608,38.03-25.664l106.056-106.055C523.654,158.076,523.654,81.954,476.871,35.171z M182.602,287.018
			c5.031,8.533,11.206,16.574,18.527,23.895c7.248,7.248,15.235,13.444,23.878,18.543l-83.74,83.74
			c-11.696,11.696-30.726,11.696-42.423,0c-11.723-11.723-11.724-30.698,0-42.422L182.602,287.018z M285.973,353.335
			L183.689,455.619c-35.087,35.087-92.178,35.087-127.266,0c-35.168-35.169-35.172-92.093,0-127.266
			c106.773-106.512,102.89-103.486,109.814-109.031c-0.708,12.675,0.576,25.439,3.859,37.78l-92.462,92.461
			c-23.445,23.446-23.448,61.396,0,84.844c23.391,23.391,61.452,23.392,84.844,0l102.283-102.283
			c23.447-23.446,23.449-61.396,0-84.844c-10.6-10.6-11.538-26.991-3.219-38.616c9.018,4.354,17.207,10.182,24.43,17.405
			C321.06,261.157,321.06,318.248,285.973,353.335z M325.711,228.754c-5.03-8.534-11.206-16.574-18.527-23.896
			c-7.249-7.248-15.236-13.444-23.878-18.543l87.512-87.512c11.722-11.722,30.698-11.724,42.422,0
			c11.723,11.723,11.725,30.698,0.001,42.422L325.711,228.754z M455.66,183.647L349.605,289.703
			c-2.405,2.405-4.916,4.654-7.53,6.746c0.708-12.674-0.576-25.439-3.859-37.78l96.233-96.233
			c23.445-23.443,23.45-61.396-0.001-84.844c-23.445-23.446-61.396-23.449-84.843,0L243.55,183.648
			c-23.445,23.445-23.448,61.396,0,84.844c10.6,10.6,11.538,26.991,3.219,38.616c-9.018-4.354-17.207-10.182-24.43-17.404
			c-35.086-35.089-35.086-92.179,0.001-127.268L328.395,56.381c35.168-35.168,92.092-35.173,127.266,0
			C490.747,91.469,490.747,148.56,455.66,183.647z"/>
	</g>
</g>
<g>
</g>
<g>
</g>
<g>
</g>
<g>
</g>
<g>
</g>
<g>
</g>
<g>
</g>
<g>
</g>
<g>
</g>
<g>
</g>
<g>
</g>
<g>
</g>
<g>
</g>
<g>
</g>
<g>
</g>
</svg>
